<?xml version="1.0" encoding="UTF-8" standalone="no"?>
<svg
   xmlns:dc="http://purl.org/dc/elements/1.1/"
   xmlns:cc="http://creativecommons.org/ns#"
   xmlns:rdf="http://www.w3.org/1999/02/22-rdf-syntax-ns#"
   xmlns:svg="http://www.w3.org/2000/svg"
   xmlns="http://www.w3.org/2000/svg"
   viewBox="0 0 869.27466 385.87067"
   height="385.87067"
   width="869.27466"
   xml:space="preserve"
   id="svg2"
   version="1.1"><metadata
     id="metadata8"><rdf:RDF><cc:Work
         rdf:about=""><dc:format>image/svg+xml</dc:format><dc:type
           rdf:resource="http://purl.org/dc/dcmitype/StillImage" /></cc:Work></rdf:RDF></metadata><defs
     id="defs6"><clipPath
       id="clipPath20"
       clipPathUnits="userSpaceOnUse"><path
         id="path18"
         d="M 0,289.403 H 651.956 V 0 H 0 Z" /></clipPath></defs><g
     transform="matrix(1.3333333,0,0,-1.3333333,0,385.87067)"
     id="g10"><path
       id="path12"
       style="fill:#ffae1a;fill-opacity:1;fill-rule:nonzero;stroke:none"
       d="M 75.98,106.367 H 60.789 v 15.191 H 75.98 Z M 60.79,228.614 h 15.19 v -15.19 H 60.79 Z m 83.932,-83.91 v 45.574 h -34.854 l 0.011,0.01 -18.708,18.708 v 34.81 H 45.598 v -45.574 h 34.853 l 18.686,-18.685 0.011,0.011 V 155.424 L 99.126,155.446 80.429,136.75 H 45.598 V 91.176 h 45.573 v 34.832 l 18.697,18.696 z" /><g
       id="g14"><g
         clip-path="url(#clipPath20)"
         id="g16"><g
           transform="translate(195.1532,96.6139)"
           id="g22"><path
             id="path24"
             style="fill:#222222;fill-opacity:1;fill-rule:nonzero;stroke:none"
             d="m 0,0 c 2.43,-5.021 7.774,-8.422 13.604,-8.422 10.852,0 17.33,8.746 17.33,20.245 0,11.661 -6.478,20.406 -17.33,20.406 C 7.612,32.229 2.43,28.666 0,23.808 Z M 0,-51.016 H -20.083 V 48.101 H 0 v -5.992 c 3.239,3.887 10.365,7.612 18.139,7.612 21.055,0 33.04,-17.492 33.04,-37.898 0,-20.407 -11.985,-37.736 -33.04,-37.736 -7.774,0 -14.9,3.725 -18.139,7.612 z" /></g><g
           transform="translate(319.2118,72.3204)"
           id="g26"><path
             id="path28"
             style="fill:#222222;fill-opacity:1;fill-rule:nonzero;stroke:none"
             d="m 0,0 h -20.083 v 6.64 c -4.048,-4.535 -11.013,-8.26 -19.434,-8.26 -16.196,0 -25.427,10.69 -25.427,26.723 v 47.292 h 20.082 V 29.152 c 0,-7.612 3.725,-12.794 11.661,-12.794 6.155,0 11.499,3.725 12.956,10.041 V 72.395 H 0 Z" /></g><g
           transform="translate(352.5736,96.6139)"
           id="g30"><path
             id="path32"
             style="fill:#222222;fill-opacity:1;fill-rule:nonzero;stroke:none"
             d="m 0,0 c 2.43,-5.021 7.774,-8.422 13.604,-8.422 10.852,0 17.33,8.746 17.33,20.245 0,11.661 -6.478,20.406 -17.33,20.406 C 7.612,32.229 2.43,28.666 0,23.808 Z M 0,-51.016 H -20.082 V 48.101 H 0 v -5.992 c 3.239,3.887 10.365,7.612 18.14,7.612 21.053,0 33.039,-17.492 33.039,-37.898 0,-20.407 -11.986,-37.736 -33.039,-37.736 -7.775,0 -14.901,3.725 -18.14,7.612 z" /></g><g
           transform="translate(432.5805,96.6139)"
           id="g34"><path
             id="path36"
             style="fill:#222222;fill-opacity:1;fill-rule:nonzero;stroke:none"
             d="m 0,0 c 2.43,-5.021 7.774,-8.422 13.604,-8.422 10.852,0 17.33,8.746 17.33,20.245 0,11.661 -6.478,20.406 -17.33,20.406 C 7.612,32.229 2.43,28.666 0,23.808 Z M 0,-51.016 H -20.082 V 48.101 H 0 v -5.992 c 3.239,3.887 10.365,7.612 18.14,7.612 21.053,0 33.039,-17.492 33.039,-37.898 0,-20.407 -11.986,-37.736 -33.039,-37.736 -7.775,0 -14.901,3.725 -18.14,7.612 z" /></g><g
           transform="translate(508.5375,116.3727)"
           id="g38"><path
             id="path40"
             style="fill:#222222;fill-opacity:1;fill-rule:nonzero;stroke:none"
             d="M 0,0 H 28.019 C 27.856,7.612 23.321,13.604 15.062,13.604 7.288,13.604 1.781,8.908 0,0 M 47.291,-20.406 C 44.7,-35.792 33.363,-45.672 15.224,-45.672 c -21.055,0 -35.145,15.386 -35.145,37.736 0,21.864 14.576,37.898 34.82,37.898 21.217,0 32.878,-14.738 32.878,-35.954 v -6.155 H -0.486 c 0.648,-10.851 6.802,-17.329 15.71,-17.329 6.801,0 11.823,2.915 13.442,9.07 z" /></g><g
           transform="translate(569.4321,128.5194)"
           id="g42"><path
             id="path44"
             style="fill:#222222;fill-opacity:1;fill-rule:nonzero;stroke:none"
             d="M 0,0 H -11.013 V 16.196 H 0 V 35.792 H 19.921 V 16.196 H 35.793 V 0 H 19.921 v -31.744 c 0,-5.668 3.077,-8.259 8.26,-8.259 3.077,0 6.478,0.972 8.746,2.429 V -55.389 C 34.173,-56.847 29.314,-57.657 23.97,-57.657 9.231,-57.657 0,-50.369 0,-34.335 Z" /></g></g></g></g></svg>
